# xmcd CD database file
#
# Track frame offsets:
#	150
#	40950
#	72300
#	96300
#	131325
#	143250
#	158250
#
# Disc length: 2418 seconds
#
# Revision: 5
# Processed by: cddbd v1.5.2PL0 Copyright (c) Steve Scherf et al.
# Submitted via: CDex 1.70beta2
#
DISCID=50097007
DTITLE=Schiller - Die Einlassmusik (Live Erleben)
DYEAR=2004
DGENRE=New Age
TTITLE0=Teil I
TTITLE1=Teil II
TTITLE2=Teil III
TTITLE3=Teil IV
TTITLE4=Teil V
TTITLE5=Teil VI
TTITLE6=Teil VII
EXTD=YEAR: 2004
EXTT0=
EXTT1=
EXTT2=
EXTT3=
EXTT4=
EXTT5=
EXTT6=
PLAYORDER=
